<?xml version="1.0" encoding="utf-8"?>
<!-- Generator: Adobe Illustrator 16.0.0, SVG Export Plug-In . SVG Version: 6.00 Build 0)  -->
<!DOCTYPE svg PUBLIC "-//W3C//DTD SVG 1.1//EN" "http://www.w3.org/Graphics/SVG/1.1/DTD/svg11.dtd">
<svg version="1.1" id="Ebene_1" xmlns="http://www.w3.org/2000/svg" xmlns:xlink="http://www.w3.org/1999/xlink" x="0px" y="0px"
	 width="1000px" height="1000px" viewBox="0 0 1000 1000" enable-background="new 0 0 1000 1000" xml:space="preserve">
<g>
	<g>
		<polygon fill="#772077" points="596.848,399.79 601.613,394.865 717.64,208.038 408.519,446.325 456.709,492.951 		"/>
		<polygon fill="#93278F" points="751.076,240.388 717.64,208.038 601.613,394.865 		"/>
		<polygon fill="#93278F" points="456.709,492.951 482.535,517.938 596.848,399.79 		"/>
		<polygon fill="#93278F" points="818.213,171 717.64,208.038 751.076,240.388 		"/>
		<polygon fill="#93278F" points="456.709,492.951 396.028,533.289 383.538,620.255 482.535,517.938 		"/>
		<polygon fill="#772077" points="408.519,446.325 396.028,533.289 456.709,492.951 		"/>
		<polygon fill="#93278F" points="599.754,397.858 601.613,394.865 596.848,399.79 		"/>
		<polygon fill="#93278F" points="482.535,517.938 509.172,543.711 599.754,397.858 596.848,399.79 		"/>
		<polygon fill="#93278F" points="601.613,394.865 599.754,397.858 785.919,274.1 751.076,240.388 		"/>
		<polygon fill="#AA2EAA" points="509.172,543.711 557.957,590.912 785.919,274.1 599.754,397.858 		"/>
		<polygon fill="#93278F" points="751.076,240.388 785.919,274.1 818.213,171 		"/>
		<polygon fill="#AA2EAA" points="470.748,605.584 557.957,590.912 509.172,543.711 		"/>
		<polygon fill="#93278F" points="482.535,517.938 383.538,620.255 470.748,605.584 509.172,543.711 		"/>
	</g>
	<g>
		<polygon fill="#93278F" points="310.117,696.359 313.771,692.582 309.272,695.543 310.117,696.359 		"/>
		<polygon fill="#772077" points="313.771,692.582 322.585,683.467 362.986,619.098 232.485,621.272 309.272,695.543 		"/>
		<polygon fill="#93278F" points="385.205,618.729 362.986,619.098 322.585,683.467 		"/>
		<polygon points="230.941,621.299 231.402,621.744 231.512,621.29 		"/>
		<polygon fill="#AA2EAA" points="312.841,698.993 387.747,771.445 385.647,645.289 319.044,689.114 		"/>
		<polygon fill="#772077" points="322.585,683.467 313.771,692.582 319.044,689.114 		"/>
		<polygon fill="#93278F" points="313.771,692.582 310.117,696.359 312.841,698.993 319.044,689.114 		"/>
		<polygon points="387.773,772.989 387.764,772.417 387.313,772.545 		"/>
		<polygon fill="#93278F" points="319.044,689.114 385.647,645.289 385.205,618.729 322.585,683.467 		"/>
		<polygon fill="#93278F" points="308.339,696.156 195.492,770.404 181.177,829.667 309.358,697.143 		"/>
		<polygon points="231.7,620.514 231.512,621.29 232.485,621.272 		"/>
		<polygon fill="#772077" points="231.402,621.744 195.492,770.404 308.339,696.156 		"/>
		<polygon fill="#93278F" points="309.272,695.543 308.339,696.156 309.358,697.143 310.117,696.359 		"/>
		<polygon fill="#772077" points="309.272,695.543 232.485,621.272 231.512,621.29 231.402,621.744 308.339,696.156 		"/>
		<polygon fill="#AA2EAA" points="241.279,813.012 387.313,772.545 312.25,699.939 		"/>
		<polygon points="387.747,771.445 387.764,772.417 388.532,772.205 		"/>
		<polygon fill="#93278F" points="309.358,697.143 309.358,697.143 181.177,829.667 241.279,813.012 312.25,699.939 		"/>
		<rect x="309.193" y="696.751" transform="matrix(0.6958 -0.7182 0.7182 0.6958 -406.2003 434.3923)" width="1.09" height="0"/>
		<polygon fill="#93278F" points="309.358,697.143 312.25,699.939 312.841,698.993 310.117,696.359 		"/>
		<polygon fill="#AA2EAA" points="312.841,698.993 312.25,699.939 387.313,772.545 387.764,772.417 387.747,771.445 		"/>
	</g>
</g>
<g>
</g>
<g>
</g>
<g>
</g>
<g>
</g>
<g>
</g>
<g>
</g>
<g>
</g>
<g>
</g>
<g>
</g>
<g>
</g>
<g>
</g>
<g>
</g>
<g>
</g>
<g>
</g>
<g>
</g>
</svg>
